<svg width="20" height="24" viewBox="0 0 20 24" fill="none" xmlns="http://www.w3.org/2000/svg">
<path d="M19.9887 20.98L18.9487 7.47995C18.8887 6.63995 18.1887 5.99995 17.3487 5.99995H15.5087V5.49995C15.5087 2.45995 13.0287 -4.57764e-05 10.0087 -4.57764e-05C6.96866 -4.57764e-05 4.50866 2.45995 4.50866 5.49995V5.99995H2.52866C1.68866 5.99995 0.988659 6.65995 0.928659 7.49995L0.00865912 21.02C-0.0913409 22.64 1.18866 24 2.80866 24H17.1887C18.8287 24 20.1087 22.6 19.9887 20.98ZM6.50866 5.49995C6.50866 3.57995 8.06866 1.99995 10.0087 1.99995C11.9487 1.99995 13.5087 3.57995 13.5087 5.49995V5.99995H6.50866V5.49995ZM5.00866 13C5.00866 12.44 5.44866 12 6.00866 12C6.56866 12 7.00866 12.44 7.00866 13C7.00866 13.56 6.56866 14 6.00866 14C5.44866 14 5.00866 13.56 5.00866 13ZM14.5887 17.36C14.2287 19 12.3087 20.2 10.0087 20.2C7.70866 20.2 5.76866 19 5.40866 17.36C5.30866 16.92 5.58866 16.5 6.02866 16.42C6.46866 16.32 6.88866 16.6 6.96866 17.04C7.14866 17.8 8.32866 18.6 10.0087 18.6C11.6887 18.6 12.8687 17.8 13.0287 17.04C13.1287 16.6 13.5487 16.34 13.9687 16.42C14.4087 16.5 14.6687 16.94 14.5887 17.36ZM14.0087 14C13.4487 14 13.0087 13.56 13.0087 13C13.0087 12.44 13.4487 12 14.0087 12C14.5687 12 15.0087 12.44 15.0087 13C15.0087 13.56 14.5487 14 14.0087 14Z" fill="#8775FE"/>
</svg>
